HIERARCHY
ROOT Hips
{
 OFFSET 0.000000 0.000000 0.000000
 CHANNELS 6 Xposition Yposition Zposition Yrotation Xrotation Zrotation
 JOINT Chest
 {
  OFFSET 0.000000 9.585900 0.002600
  CHANNELS 3 Yrotation Xrotation Zrotation
  JOINT Chest2
  {
   OFFSET 0.000000 9.601200 -0.005300
   CHANNELS 3 Yrotation Xrotation Zrotation
   JOINT Chest3
   {
    OFFSET 0.000000 9.561800 0.000000
    CHANNELS 3 Yrotation Xrotation Zrotation
    JOINT Chest4
    {
     OFFSET 0.000000 9.552100 0.000000
     CHANNELS 3 Yrotation Xrotation Zrotation
     JOINT Neck
     {
      OFFSET 0.000000 14.453000 0.000000
      CHANNELS 3 Yrotation Xrotation Zrotation
      JOINT Head
      {
       OFFSET 0.000000 8.936500 -0.011300
       CHANNELS 3 Yrotation Xrotation Zrotation
       End Site
       {
        OFFSET 0.000000 17.073600 -0.006000
       }
      }
     }
     JOINT RightCollar
     {
      OFFSET -2.921100 9.558500 0.000000
      CHANNELS 3 Yrotation Xrotation Zrotation
      JOINT RightShoulder
      {
       OFFSET -13.519700 0.000000 0.000000
       CHANNELS 3 Yrotation Xrotation Zrotation
       JOINT RightElbow
       {
        OFFSET 0.000000 -29.696600 0.000000
        CHANNELS 3 Yrotation Xrotation Zrotation
        JOINT RightWrist
        {
         OFFSET 0.000000 -24.004700 0.000000
         CHANNELS 3 Yrotation Xrotation Zrotation
         End Site
         {
          OFFSET 0.000000 -17.728500 0.000000
         }
        }
       }
      }
     }
     JOINT LeftCollar
     {
      OFFSET 2.921100 9.558500 0.000000
      CHANNELS 3 Yrotation Xrotation Zrotation
      JOINT LeftShoulder
      {
       OFFSET 13.519700 0.000000 0.000000
       CHANNELS 3 Yrotation Xrotation Zrotation
       JOINT LeftElbow
       {
        OFFSET 0.000000 -29.696600 0.000000
        CHANNELS 3 Yrotation Xrotation Zrotation
        JOINT LeftWrist
        {
         OFFSET 0.000000 -24.004700 0.000000
         CHANNELS 3 Yrotation Xrotation Zrotation
         End Site
         {
          OFFSET 0.000000 -17.728500 0.000000
         }
        }
       }
      }
     }
    }
   }
  }
 }
 JOINT RightHip
 {
  OFFSET -7.771700 -0.012900 -0.001300
  CHANNELS 3 Yrotation Xrotation Zrotation
  JOINT RightKnee
  {
   OFFSET 0.000000 -40.869800 0.001200
   CHANNELS 3 Yrotation Xrotation Zrotation
   JOINT RightAnkle
   {
    OFFSET 0.000000 -39.717900 0.002100
    CHANNELS 3 Yrotation Xrotation Zrotation
    JOINT RightToe
    {
     OFFSET 0.000000 -4.965400 11.033500
     CHANNELS 3 Yrotation Xrotation Zrotation
     End Site
     {
      OFFSET 0.000000 -1.423100 5.872300
     }
    }
   }
  }
 }
 JOINT LeftHip
 {
  OFFSET 7.771700 -0.012900 -0.001300
  CHANNELS 3 Yrotation Xrotation Zrotation
  JOINT LeftKnee
  {
   OFFSET 0.000000 -40.869800 0.001200
   CHANNELS 3 Yrotation Xrotation Zrotation
   JOINT LeftAnkle
   {
    OFFSET 0.000000 -39.717900 0.002100
    CHANNELS 3 Yrotation Xrotation Zrotation
    JOINT LeftToe
    {
     OFFSET 0.000000 -4.965400 11.033500
     CHANNELS 3 Yrotation Xrotation Zrotation
     End Site
     {
      OFFSET 0.000000 -1.423100 5.872300
     }
    }
   }
  }
 }
}
MOTION
Frames: 11
Frame Time: 0.008333
0.000000 85.388000 0.000000 0.000000 -5.767877 0.000000 0.000000 11.653817 0.000000 0.000000 -5.885947 0.000000 0.000000 -0.000000 0.000000 0.000000 -0.000000 0.000000 0.000000 12.528835 0.000000 0.000000 0.711642 0.000000 0.000000 -0.000000 0.000000 0.000000 0.000000 -90.000000 0.000000 -2.309062 0.000000 0.000000 2.309062 0.000000 0.000000 -0.000000 0.000000 0.000000 -0.000000 90.000000 0.000000 -2.309062 0.000000 0.000000 2.309062 0.000000 0.000000 8.520406 0.000000 0.000000 1.905762 0.000000 -0.000000 -4.658285 0.000000 0.000000 -0.000000 0.000000 0.000000 8.520406 0.000000 0.000000 1.905762 0.000000 -0.000000 -4.658285 0.000000 0.000000 -0.000000 0.000000
-71.122756 47.281602 -4.610957 170.895773 -27.513463 -4.441699 -1.595711 13.062706 1.705586 -0.117775 1.062810 0.183563 -0.198000 1.805627 0.310614 -1.134912 11.880258 1.950573 -1.225641 26.979553 -0.157230 -2.124217 14.276560 0.012829 -1.301742 2.527556 -1.494451 3.392190 -6.733458 -16.680279 -37.423209 -61.138876 83.165750 -0.795306 1.474945 -11.721887 -1.943077 -1.885108 1.129076 16.359291 -13.471967 20.025977 59.873412 -50.024758 -82.901870 7.596370 -1.918627 -4.196911 -5.852632 -58.420265 7.092823 -163.432930 81.990886 -153.024479 -10.123621 -19.445238 -6.132748 0.053188 0.866970 -0.083776 -3.623209 -61.006377 18.612900 -116.374238 82.160950 -120.005720 8.225795 -7.634024 6.315979 -0.298726 0.004681 -0.239429
-71.098607 47.285595 -4.621545 170.938081 -27.497294 -4.482796 -1.619346 13.038686 1.734484 -0.108020 1.048902 0.190247 -0.204996 1.805026 0.314539 -1.178785 11.874150 1.971835 -1.212670 26.998682 -0.191080 -2.013726 14.201621 0.056779 -1.347291 2.536669 -1.548084 3.407070 -6.691538 -16.681642 -37.461693 -61.127740 83.241036 -0.850353 1.404199 -11.626208 -2.023253 -1.997775 1.140295 16.686173 -13.656809 19.967001 59.979823 -49.170246 -81.973420 8.379014 -2.516842 -1.947654 -5.548196 -58.475636 7.155273 -165.879305 82.157291 -155.506192 -10.113111 -19.467607 -6.083802 0.117386 0.797296 -0.010081 -3.718519 -61.016777 18.622307 -116.496708 82.178273 -120.097225 8.329242 -7.651727 6.314136 -0.364104 0.004867 -0.252448
-71.072459 47.290392 -4.635887 170.990479 -27.485100 -4.513195 -1.629206 12.994365 1.759804 -0.117970 1.054426 0.190399 -0.211675 1.803836 0.318400 -1.220731 11.866250 1.993426 -1.175671 26.984869 -0.177574 -1.950042 14.170064 0.077961 -1.394818 2.553023 -1.594392 3.346141 -6.635476 -16.715203 -37.576007 -61.082703 83.422871 -0.813663 1.342993 -11.472966 -2.095119 -2.100924 1.152587 17.018513 -13.865031 19.906421 60.093292 -48.215566 -81.097367 9.108891 -3.132275 0.181551 -5.256201 -58.527700 7.220761 -168.307150 82.297660 -157.973195 -10.061528 -19.494905 -6.053244 0.149634 0.743487 0.049959 -3.788336 -61.022976 18.607842 -116.599353 82.185695 -120.165374 8.373416 -7.668588 6.340796 -0.388798 0.010955 -0.309559
-71.042344 47.297603 -4.656348 171.129750 -27.492827 -4.580731 -1.707670 12.973023 1.783448 -0.129319 1.060470 0.190516 -0.232941 1.818932 0.314598 -1.241924 11.838243 2.024208 -1.149590 26.975508 -0.162522 -1.901154 14.142152 0.109018 -1.445382 2.576778 -1.634834 3.281500 -6.594824 -16.759554 -37.663846 -61.060796 83.594523 -0.772969 1.284186 -11.320332 -2.161624 -2.189451 1.165870 17.359630 -14.097364 19.842505 60.222238 -47.151104 -80.290898 9.777016 -3.775320 2.209824 -5.053466 -58.545737 7.302304 -170.738666 82.412548 -160.447879 -9.990736 -19.524796 -6.027560 0.161087 0.688651 0.095025 -3.920613 -61.005562 18.605205 -116.664694 82.185772 -120.212160 8.405332 -7.686531 6.351117 -0.434456 0.018677 -0.331441
-71.009994 47.304186 -4.677117 171.238661 -27.491255 -4.630219 -1.762158 12.949625 1.802303 -0.153664 1.072733 0.186017 -0.238239 1.817627 0.315630 -1.257323 11.831723 2.037221 -1.084705 26.896600 -0.069516 -1.911286 14.161522 0.108280 -1.497616 2.583291 -1.649698 3.285961 -6.574480 -16.785469 -37.732810 -61.049080 83.672467 -0.722795 1.240292 -11.160365 -2.217084 -2.287747 1.200525 17.702959 -14.343934 19.777597 60.381918 -45.985886 -79.567725 10.402057 -4.428101 4.148991 -4.831947 -58.577773 7.390533 -173.121746 82.507758 -162.874837 -9.899752 -19.561768 -5.999717 0.155511 0.651254 0.121570 -4.016981 -60.999757 18.603976 -116.720050 82.182435 -120.258452 8.449793 -7.700994 6.361716 -0.455089 0.012984 -0.306165
-70.983655 47.307497 -4.695158 171.309221 -27.453408 -4.615731 -1.789188 12.890587 1.778697 -0.182177 1.080345 0.180219 -0.223212 1.798561 0.326297 -1.294753 11.841212 2.041167 -1.044365 26.845382 -0.004679 -1.917526 14.151782 0.137676 -1.550670 2.593727 -1.658979 3.209111 -6.555264 -16.851028 -37.827440 -61.049213 83.873183 -0.680750 1.198726 -10.992785 -2.242146 -2.322000 1.206724 18.027543 -14.654862 19.726796 60.575387 -44.736781 -78.925628 11.025937 -5.070058 5.975018 -4.514825 -58.677255 7.375686 -175.566410 82.574486 -165.382699 -9.761949 -19.570496 -5.935552 0.088368 0.612893 0.109673 -4.013998 -61.032222 18.516704 -116.779489 82.190453 -120.318570 8.496598 -7.709208 6.373724 -0.478667 0.006906 -0.307997
-70.953994 47.310912 -4.713413 171.386097 -27.410120 -4.614404 -1.814378 12.833662 1.769432 -0.151727 1.057618 0.192852 -0.268881 1.806597 0.316737 -1.326696 11.821721 2.066059 -1.055948 26.863552 -0.012899 -1.905838 14.090934 0.217662 -1.589213 2.635516 -1.691751 3.102263 -6.546826 -16.910370 -37.937390 -61.064584 84.093426 -0.654994 1.158248 -10.800284 -2.289823 -2.406126 1.236805 18.379810 -14.870162 19.668771 60.793827 -43.443959 -78.348762 11.650619 -5.680488 7.619796 -4.217192 -58.776800 7.397122 -177.714384 82.609151 -167.566359 -9.649431 -19.604411 -5.880476 0.044681 0.579636 0.098191 -4.045961 -61.065047 18.471441 -116.755645 82.187648 -120.302874 8.517985 -7.717631 6.386315 -0.499438 0.006355 -0.307228
-70.927171 47.314638 -4.733663 171.509678 -27.364708 -4.610711 -1.882383 12.784479 1.737544 -0.140405 1.048668 0.200034 -0.236458 1.782109 0.338334 -1.387143 11.787464 2.109474 -1.124642 26.905005 -0.060698 -1.914614 14.017862 0.305747 -1.667930 2.700239 -1.759701 3.020951 -6.544317 -16.957181 -38.125462 -61.090994 84.367431 -0.643182 1.154072 -10.597877 -2.363641 -2.464065 1.228381 18.729805 -15.066857 19.623568 61.036632 -42.164834 -77.832798 12.237276 -6.219894 9.037579 -3.920838 -58.868945 7.372207 -179.683372 82.626387 -169.559314 -9.583262 -19.660171 -5.829721 0.049400 0.554246 0.101635 -4.061899 -61.103186 18.369791 -116.752414 82.180806 -120.304038 8.557001 -7.726445 6.412669 -0.549537 0.003733 -0.329734
-70.898446 47.319558 -4.755394 171.587926 -27.328377 -4.595145 -1.901506 12.745984 1.715494 -0.159161 1.045919 0.198186 -0.223080 1.774549 0.345987 -1.426581 11.771812 2.125991 -1.101468 26.821718 0.037561 -1.997502 14.007734 0.317163 -1.726827 2.711024 -1.766630 2.953165 -6.534145 -17.017701 -38.253069 -61.093732 84.600385 -0.627213 1.113913 -10.393699 -2.396649 -2.538747 1.249747 19.070569 -15.263095 19.598980 61.304102 -40.954262 -77.370267 12.743456 -6.657270 10.244050 -3.602867 -58.952134 7.361571 178.475419 82.638535 -171.421319 -9.513469 -19.709168 -5.782228 0.053452 0.529799 0.104135 -4.053506 -61.130998 18.304793 -116.722216 82.183689 -120.313408 8.569130 -7.718439 6.470151 -0.607331 -0.015343 -0.348995
-70.865510 47.325807 -4.777525 171.663941 -27.295709 -4.606524 -1.904589 12.713918 1.723266 -0.213870 1.045713 0.187651 -0.173320 1.764385 0.361432 -1.474786 11.764122 2.131228 -1.088916 26.754021 0.107184 -2.071715 13.957777 0.366863 -1.782476 2.700922 -1.760686 2.889132 -6.515852 -17.073409 -38.312169 -61.083503 84.769949 -0.619437 1.040438 -10.186197 -2.421107 -2.619359 1.284305 19.404088 -15.427674 19.587123 61.591988 -39.857757 -76.943292 13.133502 -6.974774 11.254399 -3.333992 -59.022305 7.403676 176.742717 82.649557 -173.172826 -9.434482 -19.749404 -5.744681 0.056676 0.502452 0.110334 -4.068801 -61.148526 18.297762 -116.532551 82.161257 -120.149957 8.551944 -7.726610 6.507353 -0.632242 -0.013356 -0.340370
